# xmcd
#
# Track frame offsets: 
#        150
#        12037
#        26966
#        41167
#        51572
#        64161
#        77374
#        90015
#        102177
#        116248
#        127520
#        139641
#        151684
#        162687
#        176602
#
# Disc length: 2511 seconds
#
# Revision: 1
# Processed by: cddbd v1.5.2PL0 Copyright (c) Steve Scherf et al.
# Submitted via: ExactAudioCopyFreeDBPlugin 1.0
#
DISCID=b709cd0f
DTITLE=Ray Charles - Anthology Disc 2
DYEAR=2005
DGENRE=R&B
TTITLE0=Hit the Road Jack (live)
TTITLE1=Let's Go Get Stoned (live)
TTITLE2=Some Day (Blues Is My Middle Name)
TTITLE3=Hey Now (Charles)
TTITLE4=Don't Put All Your Dreams In One Basket
TTITLE5=Alone In The City
TTITLE6=Blues Before Sunrise
TTITLE7=Honey, Honey
TTITLE8=Walkin' And Talkin'
TTITLE9=She's On The Ball
TTITLE10=I've Had My Fun
TTITLE11=Going Down Slow
TTITLE12=A Sentimental Blues
TTITLE13=Late In The Evening Blues
TTITLE14=The Sun Is Gonna Shine Again
EXTD=
EXTT0=
EXTT1=
EXTT2=
EXTT3=
EXTT4=
EXTT5=
EXTT6=
EXTT7=
EXTT8=
EXTT9=
EXTT10=
EXTT11=
EXTT12=
EXTT13=
EXTT14=
PLAYORDER=
